<?xml version="1.0" encoding="UTF-8" standalone="no"?>
<svg
   xmlns:dc="http://purl.org/dc/elements/1.1/"
   xmlns:cc="http://creativecommons.org/ns#"
   xmlns:rdf="http://www.w3.org/1999/02/22-rdf-syntax-ns#"
   xmlns:svg="http://www.w3.org/2000/svg"
   xmlns="http://www.w3.org/2000/svg"
   xmlns:sodipodi="http://sodipodi.sourceforge.net/DTD/sodipodi-0.dtd"
   xmlns:inkscape="http://www.inkscape.org/namespaces/inkscape"
   sodipodi:docname="logo-no-text.svg"
   inkscape:version="1.0 (4035a4fb49, 2020-05-01)"
   id="svg864"
   version="1.1"
   viewBox="0 0 74.403076 74.402725"
   height="74.402725mm"
   width="74.403076mm">
  <defs
     id="defs858" />
  <sodipodi:namedview
     inkscape:window-maximized="1"
     inkscape:window-y="-6"
     inkscape:window-x="2729"
     inkscape:window-height="988"
     inkscape:window-width="1680"
     showgrid="false"
     inkscape:document-rotation="0"
     inkscape:current-layer="layer1"
     inkscape:document-units="mm"
     inkscape:cy="323.46072"
     inkscape:cx="660.05568"
     inkscape:zoom="0.35"
     inkscape:pageshadow="2"
     inkscape:pageopacity="0.0"
     borderopacity="1.0"
     bordercolor="#666666"
     pagecolor="#ffffff"
     id="base" />
  <metadata
     id="metadata861">
    <rdf:RDF>
      <cc:Work
         rdf:about="">
        <dc:format>image/svg+xml</dc:format>
        <dc:type
           rdf:resource="http://purl.org/dc/dcmitype/StillImage" />
        <dc:title></dc:title>
      </cc:Work>
    </rdf:RDF>
  </metadata>
  <g
     transform="translate(68.806399,-62.584352)"
     id="layer1"
     inkscape:groupmode="layer"
     inkscape:label="Layer 1">
    <g
       style="stroke-width:1.50801"
       transform="matrix(0.66312491,0,0,0.66312491,-28.483227,144.13101)"
       id="g1455">
      <path
         d="m 51.392887,-66.872464 c 0,30.98285 -25.11723,56.099333 -56.1000843,56.099333 -30.9836017,0 -56.1006107,-25.116483 -56.1006107,-56.099333 0,-30.98436 25.117009,-56.100836 56.1006107,-56.100836 30.9828543,0 56.1000843,25.116476 56.1000843,56.100836"
         style="fill:#54577c;fill-opacity:1;fill-rule:nonzero;stroke:none;stroke-width:0.0531992"
         id="path20" />
      <g
         id="g1437"
         transform="matrix(1.5175353,0,0,1.5175353,-107.99896,-172.5248)"
         style="fill:#faffd8;fill-opacity:1;stroke-width:0.993725">
        <path
           id="path22"
           style="fill:#faffd8;fill-opacity:1;fill-rule:nonzero;stroke:none;stroke-width:0.0350563"
           d="M 73.565457,92.931805 H 62.643512 c -0.981246,0 -1.700025,0.96011 -1.387776,1.89083 0.96013,2.86154 3.663277,4.922836 6.849127,4.922836 3.185097,0 5.887487,-2.061296 6.848374,-4.922836 0.312249,-0.93072 -0.405777,-1.89083 -1.38778,-1.89083" />
        <path
           id="path24"
           style="fill:#faffd8;fill-opacity:1;fill-rule:nonzero;stroke:none;stroke-width:0.0350563"
           d="m 95.358819,86.38906 -7.41555,-6.06474 v -17.5101 c 0,-9.34486 -6.5233,-17.23633 -15.239134,-19.3557 v -2.11108 c 0,-2.553811 -2.089209,-4.641509 -4.642262,-4.641509 -2.552301,0 -4.640754,2.087698 -4.640754,4.641509 v 2.09298 c -8.755054,2.09222 -15.316821,10.00103 -15.316821,19.3738 v 17.44449 h -0.03545 l -6.708839,6.27062 c -1.445099,1.99494 0.144056,4.63699 2.786865,4.63699 h 7.669724 32.413621 8.44959 c 2.73106,0 4.29984,-2.79817 2.67901,-4.77726" />
      </g>
      <g
         transform="matrix(0.19076795,0,0,-0.19498987,4.8573347,-48.85803)"
         id="g232"
         style="fill:#54577c;fill-opacity:1;stroke-width:2.75835">
        <path
           id="path234"
           style="fill:#54577c;fill-opacity:1;fill-rule:nonzero;stroke:none;stroke-width:2.75835"
           d="m 0,0 c -3.21,-0.934 -6.668,-2.007 -10.521,-3.261 -1.784,-0.58 -3.714,-0.904 -5.581,-1.216 -1.382,-0.231 -2.915,-0.49 -4.419,-0.873 -1.626,5.774 -2.192,11.703 -2.375,15.76 -0.083,1.852 -0.414,3.657 -0.731,5.403 -0.171,0.942 -0.348,1.915 -0.478,2.869 -0.091,0.635 -0.212,1.267 -0.331,1.877 -0.194,1.006 -0.378,1.956 -0.419,2.913 0,0 -0.024,0.356 -0.03,0.467 0.107,-0.041 0.21,-0.082 0.317,-0.123 0.607,-0.239 1.18,-0.465 1.69,-0.779 0.997,-0.616 1.933,-1.321 2.922,-2.068 1.116,-0.842 2.268,-1.713 3.518,-2.439 0.321,-0.186 0.653,-0.3 0.984,-0.339 0.271,-0.218 0.542,-0.432 0.808,-0.642 1.409,-1.112 2.738,-2.162 3.862,-3.692 0.957,-1.305 2.31,-2.286 3.751,-2.737 0.173,-0.192 0.349,-0.382 0.527,-0.571 0.297,-0.314 0.579,-0.612 0.801,-0.9 0.475,-0.618 0.84,-1.324 1.226,-2.072 0.396,-0.771 0.808,-1.568 1.37,-2.315 0.6,-0.801 1.271,-1.283 2.001,-1.442 0.054,-0.169 0.112,-0.334 0.169,-0.498 0.121,-0.347 0.235,-0.677 0.297,-0.962 L -0.562,2 C -0.432,1.375 -0.28,0.667 0,0 m -62.879,183.236 h 30.854 v -16.023 h -30.854 z m 25.644,70.93 c -1.302,0 -2.727,-0.175 -4.008,-0.493 -0.237,-0.059 -0.488,-0.116 -0.745,-0.173 -1.68,-0.378 -3.912,-0.885 -4.976,-2.633 -2.537,-0.282 -4.897,-2.075 -6.099,-3.751 -0.377,-0.524 -1.064,-1.481 -1.241,-2.576 -1.355,-0.616 -1.907,-2.158 -2.314,-3.3 -0.048,-0.131 -0.093,-0.259 -0.138,-0.376 -0.537,-1.434 -0.816,-2.806 -0.867,-4.274 -0.539,-0.443 -1.009,-1.01 -1.373,-1.65 -0.465,0.67 -0.9,1.333 -1.305,1.951 -0.266,0.406 -0.538,0.793 -0.806,1.171 -0.836,1.185 -1.56,2.209 -1.892,3.596 -0.447,1.866 -0.636,3.414 -0.611,5.025 0.105,7.192 7.731,14.251 15.392,14.251 2.878,0 5.979,-0.922 9.755,-2.9 1.688,-0.883 3,-2.505 4.033,-4.173 -0.84,0.202 -1.779,0.305 -2.805,0.305 m 1.242,-16.796 c -1.272,0.631 -3.64,1.806 -4.2,3.262 -0.169,0.442 -0.597,0.738 -1.068,0.738 -0.581,0 -1.098,-0.485 -1.139,-1.061 -0.173,-2.369 2.362,-4.797 3.025,-5.39 -0.26,-0.094 -0.519,-0.182 -0.775,-0.259 -0.481,0.261 -0.983,0.32 -1.377,0.367 -0.208,0.025 -0.405,0.049 -0.531,0.094 -0.356,0.126 -0.721,0.208 -1.073,0.289 -0.806,0.18 -1.312,0.316 -1.542,0.674 -0.22,0.344 -0.594,0.55 -1,0.55 -0.638,0 -1.16,-0.501 -1.187,-1.134 -0.055,-1.16 0.665,-2.062 1.544,-2.753 -0.149,-0.016 -0.3,-0.035 -0.448,-0.055 -0.333,-0.041 -0.676,-0.084 -0.972,-0.086 -0.304,0 -0.506,0.047 -0.607,0.137 -0.223,0.206 -0.511,0.32 -0.812,0.32 -0.404,0 -0.777,-0.202 -1,-0.542 -0.224,-0.341 -0.261,-0.769 -0.099,-1.145 0.593,-1.376 2.228,-2.148 3.536,-2.202 0.372,-0.015 0.751,-0.056 1.14,-0.123 -1.444,-0.43 -2.73,-0.634 -3.947,-0.634 -1.676,0 -3.312,0.391 -5.003,1.191 -0.778,0.369 -1.533,0.887 -2.302,1.579 -0.031,0.191 -0.092,0.379 -0.181,0.562 -0.294,0.606 -0.223,1.355 0.15,1.911 0.084,-0.01 0.171,-0.016 0.257,-0.016 0.223,0 0.441,0.035 0.647,0.102 0.149,-0.126 0.305,-0.269 0.449,-0.404 0.216,-0.202 0.44,-0.41 0.671,-0.589 0.081,-0.061 0.169,-0.137 0.266,-0.218 0.403,-0.341 0.906,-0.765 1.478,-0.922 0.042,-0.011 0.116,-0.027 0.204,-0.043 0.006,0 0.014,-0.002 0.02,-0.002 0.153,-0.074 0.322,-0.114 0.493,-0.114 0.384,0 0.776,0.222 0.977,0.551 0.206,0.34 0.219,0.77 0.043,1.111 -0.012,0.02 -0.02,0.041 -0.03,0.061 -0.041,0.117 -0.099,0.231 -0.18,0.335 -0.66,0.873 -1.414,1.744 -2.064,2.48 -0.218,0.247 -0.523,0.555 -0.9,0.828 0.039,0.677 0.117,1.366 0.309,2.123 0.228,0.892 0.428,1.405 0.57,1.693 0.188,-0.212 0.396,-0.494 0.564,-0.726 0.669,-0.91 1.501,-2.042 2.855,-2.042 0.098,0 0.196,0.006 0.296,0.019 0.44,0.057 0.815,0.363 0.956,0.781 0.135,0.4 0.021,0.887 -0.281,1.183 -0.106,0.122 -0.278,0.564 -0.371,0.803 -0.07,0.182 -0.135,0.351 -0.2,0.488 -0.202,0.441 -0.441,0.846 -0.673,1.236 -0.139,0.236 -0.276,0.469 -0.404,0.706 -0.098,0.189 -0.216,0.365 -0.347,0.526 0.111,0.161 0.218,0.322 0.323,0.481 0.183,0.275 0.354,0.532 0.537,0.765 0.535,0.685 1.289,1.14 1.954,1.495 0.111,0.059 0.223,0.114 0.335,0.167 0.486,-1.327 1.298,-2.512 2.033,-3.226 0.235,-0.229 0.543,-0.355 0.869,-0.355 0.547,0 1.025,0.352 1.19,0.874 0.306,0.967 0.167,1.916 0.043,2.754 l -0.043,0.296 c -0.041,0.292 -0.047,0.61 -0.054,0.946 -0.004,0.302 -0.012,0.61 -0.041,0.932 0.08,0.021 0.162,0.041 0.227,0.058 0.2,0.05 0.407,0.1 0.608,0.179 0.926,0.361 2.992,0.973 4.864,0.973 1.381,0 2.244,-0.32 2.571,-0.949 0.062,-0.724 0.173,-1.435 0.266,-1.976 0.051,-0.306 0.072,-0.636 0.095,-0.983 0.016,-0.231 0.032,-0.465 0.057,-0.696 v -0.083 c 0.002,-0.049 0.006,-0.098 0.016,-0.147 -0.074,-0.667 -0.078,-1.261 -0.008,-1.809 0.063,-0.484 0.396,-0.879 0.836,-1.035 -0.193,-0.142 -0.341,-0.34 -0.42,-0.578 -0.461,-1.395 -0.031,-3.035 0.312,-4.353 0.051,-0.198 0.102,-0.388 0.145,-0.565 0.038,-0.165 0.085,-0.467 0.116,-0.771 -0.058,0.031 -0.114,0.061 -0.163,0.086 -0.241,0.128 -0.467,0.247 -0.696,0.342 -0.204,0.082 -0.412,0.129 -0.622,0.141 -0.294,0.316 -0.661,0.585 -1.087,0.797 m 6.768,-1.631 c 0.008,-0.031 0.018,-0.067 0.026,-0.104 -0.004,0.004 -0.01,0.008 -0.016,0.01 -0.139,0.098 -0.294,0.204 -0.467,0.302 -0.117,0.614 -0.309,1.179 -0.48,1.562 -0.15,0.335 -0.359,0.708 -0.579,1.104 -0.414,0.74 -1.107,1.976 -1.01,2.512 0.061,0.341 -0.034,0.688 -0.254,0.951 -0.119,0.141 -0.282,0.255 -0.463,0.328 0.245,0.162 0.428,0.416 0.509,0.721 0.286,1.089 0.624,2.196 0.951,3.265 0.222,0.732 0.446,1.464 0.657,2.2 0.24,0.839 0.455,0.839 1.033,0.839 0.245,0 0.507,-0.019 0.79,-0.037 l 0.256,-0.016 c 0.358,-0.021 0.519,-0.149 0.896,-0.618 -0.497,-1.085 -0.63,-2.328 -0.575,-3.178 0.027,-0.422 0.266,-0.785 0.608,-0.983 -0.136,-0.123 -0.243,-0.279 -0.312,-0.461 -0.816,-2.133 -1.568,-4.253 -1.803,-6.747 -0.051,-0.532 0.095,-1.1 0.233,-1.65 m 0.519,-72.192 c 0.008,0.12 0.037,0.263 0.062,0.392 0.006,0.034 0.012,0.067 0.018,0.098 0.292,0.356 0.449,0.817 0.436,1.299 0.013,0.082 0.023,0.165 0.027,0.247 h 8.897 c -1.583,-1.536 -2.776,-3.323 -3.294,-4.961 -0.215,-0.279 -0.423,-0.561 -0.633,-0.846 -0.463,-0.63 -0.903,-1.224 -1.4,-1.75 -0.335,-0.351 -0.688,-0.653 -1.062,-0.969 -0.122,-0.104 -0.244,-0.206 -0.362,-0.31 -0.274,-0.014 -0.545,-0.084 -0.804,-0.208 -0.634,-0.306 -1.226,-0.755 -1.77,-1.338 -0.037,0.698 -0.078,1.41 -0.123,2.144 -0.02,0.496 -0.038,0.987 -0.038,1.462 0,0.604 -0.006,1.206 -0.01,1.811 -0.004,0.482 -0.008,0.965 -0.009,1.438 0.001,0.485 0.023,0.979 0.065,1.491 m 13.17,56.089 c 0.251,-0.719 0.573,-1.552 1.208,-2.355 0.192,-0.245 0.355,-0.596 0.528,-0.97 0.261,-0.562 0.555,-1.199 1.066,-1.709 0.354,-0.353 0.812,-0.601 1.343,-0.73 0.148,-0.404 0.322,-0.789 0.483,-1.146 0.136,-0.294 0.266,-0.585 0.373,-0.869 0.043,-0.116 0.086,-0.237 0.131,-0.361 0.194,-0.544 0.41,-1.15 0.748,-1.709 0.002,-0.061 0.004,-0.104 0.006,-0.127 0.103,-1.278 0.515,-3.097 1.359,-4.374 0.002,-0.004 0.006,-0.008 0.008,-0.012 0.004,-0.135 0.008,-0.268 0.013,-0.401 0.024,-0.686 0.045,-1.278 -0.089,-1.89 -0.099,-0.441 -0.537,-2.701 0.331,-4.112 -0.006,-0.041 -0.014,-0.08 -0.02,-0.121 -0.025,-0.171 -0.049,-0.332 -0.086,-0.468 -0.288,-1.055 -0.871,-3.706 -0.045,-5.511 0.01,-0.021 0.02,-0.041 0.03,-0.061 -0.195,-0.522 -0.354,-1.049 -0.509,-1.563 -0.172,-0.569 -0.335,-1.105 -0.533,-1.619 -0.314,-0.8 -0.634,-1.836 -0.485,-2.984 -0.447,-0.822 -0.781,-1.687 -1.065,-2.535 h -17.42 v 1.158 c 0,0.508 -0.189,0.979 -0.531,1.328 -0.014,0.016 -0.064,0.063 -0.074,0.073 -0.315,0.31 -0.733,0.494 -1.186,0.526 v 11.257 c 0.414,0.069 0.784,0.267 1.065,0.573 0.32,0.351 0.5,0.822 0.502,1.314 0.022,0.112 0.031,0.224 0.031,0.338 v 18.375 c 1.156,0.765 2.361,1.615 3.51,2.694 0.581,0.543 1.019,1.149 1.443,1.734 0.327,0.454 0.637,0.881 0.99,1.25 0.301,0.314 0.583,0.663 0.851,1.055 0.941,-0.745 1.984,-1.181 2.963,-1.218 0.35,-0.479 0.73,-0.904 1.097,-1.299 0.122,-0.131 0.251,-0.276 0.385,-0.43 0.404,-0.459 0.879,-0.998 1.433,-1.449 -0.07,-0.595 -0.023,-1.178 0.146,-1.652 m -47.215,-1.746 h 30.534 V 202.187 H -62.751 Z M -67.275,81.914 c -0.134,0.227 -0.265,0.443 -0.395,0.651 -0.51,0.826 -0.877,1.422 -0.912,2.343 -0.004,0.117 -0.006,0.229 -0.008,0.337 -0.01,0.453 -0.017,0.918 -0.181,1.422 0.381,1.329 0.43,2.8 0.142,4.287 -0.044,0.224 -0.085,0.475 -0.13,0.738 -0.114,0.694 -0.243,1.466 -0.459,2.197 1.95,3.398 2.664,7.1 2.917,9.655 0.016,0.143 0.018,0.284 0.008,0.423 0.089,0.152 0.177,0.303 0.267,0.456 0.169,0.288 0.339,0.577 0.506,0.871 l 0.004,-22.329 c 0,-0.543 -0.004,-1.085 -0.007,-1.62 -0.01,-1.521 -0.02,-3.082 0.06,-4.632 -0.1,0.21 -0.198,0.428 -0.294,0.657 -0.169,0.408 -0.357,0.857 -0.632,1.289 0.049,1.134 -0.219,2.105 -0.886,3.255 M -3.853,222.155 C -3.821,221.507 -3.29,221 -2.645,221 c 0.199,0 0.444,0.068 0.615,0.168 l -0.562,0.95 0.624,-0.913 c 0.146,0.085 0.267,0.198 0.362,0.332 0.336,0.213 0.804,0.502 0.982,0.594 0.12,0.034 0.237,0.069 0.357,0.106 0.281,0.083 0.543,0.163 0.782,0.199 0.056,0.007 0.107,0.011 0.158,0.011 0.389,0 0.608,-0.365 1.079,-1.475 0.181,-0.424 0.383,-0.84 0.585,-1.258 0.317,-0.653 0.616,-1.271 0.82,-1.903 0.055,-0.165 0.104,-0.33 0.153,-0.492 0.067,-0.22 0.135,-0.442 0.21,-0.665 -0.961,-0.479 -1.868,-1.237 -2.643,-1.884 -0.459,-0.384 -0.893,-0.747 -1.181,-0.916 -0.461,-0.271 -0.684,-0.818 -0.546,-1.33 0.142,-0.518 0.615,-0.881 1.153,-0.881 0.068,0 0.154,0.008 0.221,0.022 0.638,0.119 1.187,0.396 1.671,0.637 0.255,0.13 0.499,0.249 0.729,0.338 0.327,0.123 0.786,0.21 1.192,0.286 0,0 0.514,0.104 0.577,0.116 0.036,-0.043 0.08,-0.104 0.139,-0.187 0.638,-0.898 0.887,-2.106 1.15,-3.384 0.067,-0.32 0.133,-0.643 0.208,-0.967 -1.335,-0.657 -2.593,-1.283 -3.877,-2.105 -0.447,-0.289 -0.655,-0.85 -0.504,-1.364 0.151,-0.514 0.612,-0.859 1.148,-0.859 H 3.02 c 0.935,0.049 1.812,0.231 2.605,0.541 0.104,0.044 0.274,0.126 0.482,0.23 0.22,0.112 0.799,0.404 1.184,0.522 0.184,-0.504 0.255,-1.293 0.306,-1.85 0.019,-0.228 0.039,-0.444 0.062,-0.634 0.037,-0.316 0.031,-0.653 0.024,-1.012 -0.004,-0.271 -0.01,-0.556 0.004,-0.848 -0.518,-0.074 -1.024,-0.228 -1.397,-0.434 -0.306,-0.166 -0.681,-0.239 -1.256,-0.239 -0.218,0 -0.439,0.01 -0.659,0.018 -0.249,0.009 -0.496,0.02 -0.743,0.02 -0.459,0 -0.836,-0.034 -1.19,-0.106 -0.545,-0.112 -0.941,-0.601 -0.941,-1.162 0,-0.561 0.396,-1.05 0.941,-1.161 0.371,-0.077 0.754,-0.216 1.162,-0.363 0.461,-0.169 0.938,-0.342 1.467,-0.453 0.315,-0.065 0.642,-0.099 1.003,-0.099 0.288,0 0.572,0.022 0.854,0.043 0.109,0.008 0.219,0.016 0.329,0.024 -0.016,-0.176 -0.029,-0.347 -0.031,-0.498 -0.002,-0.141 -0.049,-0.341 -0.098,-0.551 -0.055,-0.23 -0.116,-0.491 -0.144,-0.771 -0.021,-0.22 -0.037,-0.444 -0.052,-0.667 -0.026,-0.403 -0.051,-0.784 -0.119,-1.131 -0.435,-0.029 -0.875,-0.094 -1.302,-0.157 -0.555,-0.08 -1.079,-0.159 -1.558,-0.159 -0.459,0 -0.796,0.073 -1.057,0.224 -0.168,0.098 -0.38,0.155 -0.575,0.155 -0.425,0 -0.814,-0.233 -1.016,-0.608 -0.193,-0.361 -0.169,-0.838 0.058,-1.177 0.449,-0.671 1.198,-1.607 2.491,-2.001 0.678,-0.206 1.388,-0.238 2.016,-0.265 0.146,-0.006 0.288,-0.012 0.43,-0.02 0.021,-0.002 0.106,-0.004 0.124,-0.002 -0.002,-0.014 -0.004,-0.025 -0.006,-0.037 -0.03,-0.114 -0.192,-0.5 -0.313,-0.781 -0.264,-0.628 -0.61,-1.442 -0.812,-2.211 -0.129,-0.047 -0.292,-0.104 -0.477,-0.169 -2.201,-0.773 -3.313,-1.295 -3.676,-2.168 -0.159,-0.378 -0.149,-0.79 0.024,-1.155 0.269,-0.565 0.986,-1.511 2.783,-1.511 0.111,0 0.218,0.004 0.326,0.01 -0.021,-0.314 -0.043,-0.605 -0.079,-0.846 -0.403,-2.737 -1.875,-4.612 -4.496,-5.734 -0.526,-0.226 -0.822,-0.777 -0.72,-1.342 0.104,-0.575 0.598,-1.013 1.175,-1.04 0.159,-0.008 0.316,-0.01 0.475,-0.01 0.363,0 0.722,0.018 1.073,0.049 -0.585,-1.663 -1.39,-3.153 -2.483,-4.973 -0.142,-0.238 -0.55,-0.918 -0.819,-1.111 -0.019,0.016 -0.043,0.038 -0.07,0.065 -0.42,0.43 -0.871,0.81 -1.308,1.179 l -0.385,0.328 c -0.36,0.308 -2.013,0.918 -2.623,0.918 -0.079,0 -0.152,-0.008 -0.22,-0.018 -0.515,-0.029 -0.946,-0.388 -1.06,-0.881 l -0.025,-0.105 c -0.136,-0.603 0.22,-1.217 0.806,-1.396 0.532,-0.162 0.84,-0.678 1.3,-1.504 0.407,-0.73 0.866,-1.558 1.686,-2.115 0.041,-0.029 0.085,-0.059 0.128,-0.087 -0.571,-0.969 -1.149,-1.938 -1.723,-2.905 l -0.822,-1.387 c -0.057,-0.096 -0.142,-0.243 -0.233,-0.395 -0.338,0.762 -0.757,1.496 -1.546,2.164 -0.473,0.401 -1.021,0.611 -1.585,0.611 -0.587,0 -1.145,-0.224 -1.614,-0.648 -0.323,-0.296 -0.457,-0.745 -0.346,-1.173 0.109,-0.428 0.445,-0.757 0.837,-0.844 0.198,-0.158 0.406,-1.043 0.53,-1.573 0.183,-0.777 0.381,-1.626 0.793,-2.341 -0.357,-0.494 -0.68,-1.008 -0.995,-1.512 -0.449,-0.714 -0.871,-1.389 -1.336,-1.925 -0.185,-0.212 -0.361,-0.428 -0.54,-0.643 -0.216,-0.261 -0.432,-0.524 -0.659,-0.777 -0.106,-0.118 -0.193,-0.204 -0.261,-0.269 -0.049,0.069 -0.109,0.157 -0.181,0.273 -0.07,0.112 -0.138,0.229 -0.208,0.347 -0.196,0.339 -0.42,0.724 -0.719,1.067 -0.244,0.277 -0.53,0.498 -0.783,0.695 -0.204,0.159 -0.435,0.339 -0.522,0.462 -0.22,0.318 -0.583,0.509 -0.969,0.509 -0.624,0 -1.141,-0.49 -1.172,-1.116 -0.039,-0.779 0.253,-1.291 0.467,-1.666 0.097,-0.169 0.179,-0.314 0.242,-0.489 0.133,-0.372 0.241,-0.747 0.349,-1.12 0.173,-0.591 0.349,-1.197 0.612,-1.813 0.027,-0.064 0.059,-0.127 0.09,-0.188 -0.895,-0.871 -1.727,-1.813 -2.48,-2.666 -0.229,-0.259 -0.453,-0.513 -0.672,-0.758 -0.193,-0.214 -0.391,-0.427 -0.599,-0.641 -0.345,1.128 -0.986,2.001 -1.61,2.85 -0.119,0.16 -0.236,0.32 -0.354,0.485 -0.206,0.288 -0.585,0.485 -0.939,0.485 -0.334,0 -0.652,-0.145 -0.871,-0.398 -0.21,-0.242 -0.319,-0.611 -0.271,-0.929 0.066,-0.462 0.164,-0.89 0.263,-1.304 0.109,-0.477 0.216,-0.928 0.261,-1.391 0.015,-0.159 -0.028,-0.5 -0.065,-0.801 -0.091,-0.708 -0.196,-1.551 0.066,-2.289 -1.394,-1.099 -2.741,-2.196 -4.073,-3.322 -0.025,0.082 -0.188,0.597 -0.188,0.597 -0.277,0.904 -0.578,1.607 -0.959,2.224 -0.01,2.596 -0.039,4.986 -0.088,7.293 0.208,1.491 0.418,3.604 0.43,3.782 0.013,0.21 0.068,0.444 0.162,0.689 0.479,-1.148 1.287,-2.15 2.463,-2.419 0.082,-0.02 0.204,-0.033 0.288,-0.033 0.42,0 0.818,0.206 1.061,0.547 0.236,0.334 0.296,0.763 0.163,1.148 -0.225,0.641 -0.263,1.589 -0.295,2.425 -0.009,0.251 -0.019,0.494 -0.033,0.724 -0.035,0.594 0.879,1.296 1.615,1.859 0.267,0.206 0.52,0.401 0.734,0.587 0.072,0.063 0.145,0.13 0.218,0.199 0.562,-0.719 1.238,-1.201 1.961,-1.376 0.084,-0.021 0.193,-0.033 0.281,-0.033 0.381,0 0.742,0.184 0.966,0.496 0.219,0.306 0.278,0.703 0.154,1.061 -0.778,2.28 -0.942,3.514 0.149,4.809 0.348,0.412 0.732,0.796 1.14,1.205 0.012,0.009 0.021,0.021 0.033,0.033 0.393,-0.359 0.799,-0.689 1.18,-0.995 0.337,-0.272 0.659,-0.531 0.924,-0.775 0.202,-0.184 0.511,-0.306 0.789,-0.306 0.405,0 0.774,0.206 0.99,0.551 0.216,0.346 0.235,0.771 0.055,1.139 l -0.292,0.586 c -0.465,0.93 -0.991,1.982 -1.286,2.821 -0.003,0.012 -0.007,0.024 -0.011,0.034 0.019,0.041 0.037,0.082 0.054,0.123 0.15,0.356 0.183,0.738 0.109,1.109 0.198,0.367 0.502,0.745 0.818,1.142 0.088,0.111 0.176,0.221 0.265,0.335 0.673,-0.392 1.426,-0.606 2.183,-0.606 0.201,0 0.403,0.014 0.601,0.043 0.434,0.063 0.788,0.361 0.93,0.777 0.139,0.416 0.033,0.887 -0.275,1.199 -1.417,1.434 -1.434,2.472 -0.771,4.863 0.161,0.587 0.498,1.175 0.855,1.799 0.016,0.03 0.032,0.057 0.049,0.087 0.11,-0.032 0.22,-0.061 0.328,-0.091 0.208,-0.054 0.43,-0.113 0.659,-0.188 0.785,-0.259 1.505,-0.565 2.202,-0.932 0.223,-0.117 0.348,-0.196 0.414,-0.241 0.282,-0.465 0.751,-0.547 1.202,-0.628 0.065,-0.012 0.137,-0.018 0.202,-0.018 0.478,0 0.912,0.299 1.081,0.744 0.161,0.428 0.031,0.955 -0.312,1.259 -0.137,0.122 -0.271,0.353 -0.412,0.599 -0.245,0.428 -0.551,0.961 -1.118,1.357 -0.793,0.556 -1.646,1.128 -2.613,1.548 0.037,0.451 0.531,1.44 0.729,1.835 0.132,0.261 0.247,0.494 0.325,0.677 0.241,0.569 0.445,1.148 0.638,1.712 0.515,-0.117 1.072,-0.178 1.649,-0.178 1.256,0 2.46,0.288 3.307,0.793 0.315,0.188 0.527,0.517 0.564,0.884 0.039,0.363 -0.097,0.73 -0.363,0.979 -0.695,0.65 -1.63,0.972 -2.457,1.256 -0.17,0.059 -0.335,0.116 -0.492,0.175 -0.477,0.178 -0.89,0.386 -1.203,0.6 0.067,0.233 0.214,0.63 0.52,1.297 0.051,0.115 0.094,0.208 0.12,0.269 0.276,0.671 0.457,1.31 0.539,1.912 0.499,0.071 0.977,0.183 1.401,0.281 0.088,0.022 0.206,0.035 0.335,0.053 0.74,0.102 1.979,0.275 2.394,1.326 0.143,0.369 0.096,0.785 -0.127,1.113 -0.23,0.335 -0.605,0.535 -1.007,0.535 -0.066,0 -0.143,-0.008 -0.216,-0.022 -0.173,0.032 -0.535,0.163 -0.72,0.228 -0.204,0.075 -0.384,0.138 -0.511,0.171 -0.462,0.121 -0.834,0.233 -1.209,0.39 0.002,0.082 0.004,0.175 0.004,0.275 -0.002,0.318 0.06,0.728 0.124,1.16 0.045,0.299 0.093,0.619 0.125,0.949 0.927,0.196 1.848,0.543 2.662,0.877 0.514,0.212 0.812,0.739 0.728,1.287 -0.085,0.543 -0.528,0.953 -1.081,0.998 -0.32,0.026 -0.635,0.046 -0.952,0.063 -0.607,0.037 -1.181,0.071 -1.754,0.155 -0.204,0.032 -0.414,0.049 -0.649,0.059 -0.055,0.047 -0.112,0.092 -0.172,0.134 -0.006,0.223 0.004,0.451 0.008,0.581 l 0.006,0.176 c 0.003,0.385 0.07,0.796 0.14,1.234 0.012,0.08 0.026,0.161 0.04,0.243 0.718,0.012 1.512,0.201 2.36,0.556 0.12,0.05 0.225,0.076 0.322,0.104 0.35,0.094 0.881,0.239 1.371,0.849 0.312,0.39 0.379,0.93 0.169,1.377 -0.206,0.443 -0.644,0.726 -1.14,0.736 -0.214,0.004 -0.435,0.047 -0.693,0.096 -0.321,0.061 -0.689,0.131 -1.105,0.135 l -0.756,-0.007 c -0.687,0 -0.817,0.09 -0.988,0.331 -0.16,0.228 -0.276,0.503 -0.368,0.806 0.632,0.197 1.194,0.52 1.746,0.838 l 0.187,0.106 c 1.031,0.589 2.23,1.679 2.501,2.966 0.07,0.326 -0.012,0.685 -0.222,0.946 -0.21,0.261 -0.541,0.42 -0.877,0.42 -0.074,0 -0.155,-0.01 -0.227,-0.025 -0.302,-0.061 -0.667,-0.183 -1.091,-0.322 -0.708,-0.236 -1.68,-0.556 -2.31,-0.556 -0.103,0 -0.172,0.009 -0.214,0.018 -0.093,0.24 -0.198,0.575 -0.305,0.928 -0.201,0.65 -0.438,1.417 -0.772,2.111 0.361,0.514 0.638,1.06 0.907,1.591 0.485,0.956 0.901,1.782 1.706,2.233 0.442,0.241 0.676,0.781 0.55,1.269 -0.126,0.491 -0.591,0.85 -1.095,0.85 h -0.027 c -1.305,-0.035 -2.399,-0.793 -3.323,-1.499 -0.336,-0.255 -0.618,-0.557 -0.894,-0.85 -0.266,-0.282 -0.537,-0.573 -0.79,-0.723 -0.023,0.041 -0.049,0.084 -0.072,0.129 -0.311,0.52 -0.664,1 -1.144,1.56 -0.168,0.196 -0.269,0.482 -0.357,0.82 0.69,0.677 0.861,1.704 0.996,2.509 l 0.037,0.218 c 0.05,0.288 0.087,0.579 0.124,0.869 0.096,0.746 0.187,1.45 0.504,1.985 0.493,0.825 1.279,1.556 2.113,2.296 0.006,0.006 0.012,0.012 0.018,0.015 0.051,-0.003 0.1,-0.007 0.151,-0.007 0.448,0 0.864,0.213 1.136,0.582 0.508,0.683 1.344,1.303 1.758,1.303 0.037,0 0.102,0 0.222,-0.198 0.249,-0.42 0.488,-0.844 0.729,-1.267 0.268,-0.475 0.536,-0.948 0.817,-1.415 0.26,-0.428 0.54,-0.836 0.81,-1.228 0.189,-0.273 0.368,-0.536 0.543,-0.809 -1.251,-0.715 -2.415,-2.159 -2.35,-3.725 m -5.662,14.041 c 0.263,-0.443 0.539,-0.877 0.816,-1.312 0.304,-0.477 0.593,-0.93 0.863,-1.397 0.071,-0.124 0.144,-0.245 0.216,-0.365 0.006,-0.01 0.012,-0.019 0.017,-0.03 -0.618,-0.659 -1.053,-1.461 -1.237,-2.289 -2.101,-0.781 -4.359,-2.017 -5.28,-5.254 -0.129,0.159 -0.257,0.316 -0.386,0.463 -0.285,0.318 -0.524,0.652 -0.765,1.026 0.219,0.81 0.245,1.668 0.249,2.431 10e-4,0.473 -0.024,0.936 -0.049,1.383 -0.024,0.445 -0.047,0.865 -0.045,1.275 0.006,0.622 0.529,2.044 0.976,2.851 0.087,0.159 0.134,0.343 0.138,0.53 0.352,0.066 0.663,0.278 0.846,0.584 l 0.033,0.053 c 0.471,0.785 1.056,1.762 1.691,2.243 0.065,0.049 0.1,0.059 0.106,0.059 0.149,0 0.616,-0.206 1.728,-2.108 z m -5.15,4.638 c 0.136,-0.2 0.276,-0.408 0.436,-0.61 -0.673,-0.948 -1.115,-2.127 -1.247,-3.374 -0.007,-0.069 -0.009,-0.14 -0.005,-0.208 -0.179,-0.056 -0.349,-0.151 -0.479,-0.279 -1.956,-1.923 -2.778,-4.05 -3.5,-6.415 -0.19,0.143 -0.379,0.302 -0.571,0.465 l -0.139,0.115 c 0.434,1.403 0.276,2.896 0.123,4.346 -0.171,1.617 -0.331,3.145 0.377,4.273 0.226,0.361 0.239,0.816 0.035,1.185 -0.206,0.375 -0.602,0.606 -1.034,0.606 -0.247,0 -0.535,-0.098 -0.729,-0.253 -1.793,-1.411 -2.443,-3.812 -2.775,-5.497 -0.117,-0.591 -0.164,-1.16 -0.206,-1.711 -0.174,0.208 -0.36,0.445 -0.543,0.696 -0.01,0.828 -0.255,1.657 -0.476,2.402 -0.144,0.485 -0.28,0.944 -0.311,1.275 -0.092,0.973 0.025,1.952 0.149,2.99 0.115,0.942 0.232,1.917 0.189,2.927 -0.016,0.4 -0.226,0.744 -0.536,0.946 0.252,0.194 0.416,0.486 0.451,0.814 0.144,0.202 0.394,0.541 0.832,1.113 l 0.056,0.072 c 0.474,0.624 0.554,0.624 1.076,0.624 0.087,0 0.18,-0.002 0.281,-0.006 0.732,-0.025 1.299,-0.312 1.946,-0.698 -0.3,-0.464 -0.508,-0.989 -0.604,-1.543 -0.185,-1.051 0.055,-2.099 0.677,-2.952 0.256,-0.355 0.649,-0.559 1.077,-0.559 0.42,0 0.81,0.198 1.069,0.543 0.096,0.128 0.187,0.252 0.275,0.375 0.249,0.345 0.462,0.644 0.74,0.889 0,0.002 0.002,0.004 0.004,0.006 0.035,-0.024 0.068,-0.048 0.101,-0.071 0.332,-0.224 0.669,-0.434 1.009,-0.64 0.92,-0.567 1.716,-1.055 2.252,-1.846 M -65.9,56.283 c 0.029,0.336 -0.082,0.672 -0.31,0.921 -0.231,0.254 -0.563,0.4 -0.909,0.4 -0.339,0 -0.665,-0.142 -0.891,-0.387 -0.047,-0.043 -0.307,-0.161 -0.879,-0.161 -0.772,0 -1.567,0.216 -1.777,0.33 -1.023,0.567 -2.542,1.648 -3.31,2.48 -0.781,0.845 -1.252,1.96 -1.75,3.139 -0.256,0.61 -0.523,1.236 -0.839,1.844 0.919,0.304 1.685,0.648 2.144,0.873 0.51,0.249 0.815,0.779 0.774,1.348 -0.044,0.589 -0.444,1.104 -1.001,1.285 -1.233,0.395 -2.367,0.492 -3.514,0.563 -0.097,0.006 -0.198,0.008 -0.307,0.008 -0.135,0 -0.282,-0.004 -0.435,-0.008 -0.145,-0.004 -0.298,-0.008 -0.453,-0.008 -0.714,0 -0.856,0.116 -0.87,0.132 -0.309,0.625 -0.498,1.436 -0.678,2.219 -0.078,0.339 -0.157,0.675 -0.243,0.994 -0.137,0.514 -0.267,1.085 -0.403,1.687 -0.212,0.925 -0.435,1.919 -0.729,2.898 0.309,-0.041 0.614,-0.063 0.906,-0.063 0.781,0 1.474,0.15 2.061,0.442 0.544,0.271 0.809,0.93 0.601,1.501 l -1.037,-0.377 1.004,0.469 c -0.171,0.471 -0.62,0.787 -1.118,0.787 h -0.039 c -0.518,0.278 -1.585,0.928 -2.207,1.308 -0.901,0.55 -1.146,0.697 -1.309,0.769 -1.499,0.665 -1.546,1.419 -1.656,3.238 -0.024,0.398 -0.051,0.817 -0.096,1.261 -0.063,0.612 -0.091,1.315 -0.12,2.058 -0.012,0.304 -0.023,0.612 -0.039,0.92 0.6,-0.304 1.205,-0.539 1.775,-0.685 0.089,-0.021 0.234,-0.041 0.326,-0.041 0.514,0 0.979,0.306 1.187,0.777 0.21,0.475 0.12,1.03 -0.23,1.413 -0.357,0.39 -0.723,0.769 -1.092,1.148 -0.514,0.526 -0.999,1.022 -1.452,1.557 -1.34,1.575 -1.597,3.11 -0.954,5.66 0.059,0.226 0.175,0.569 0.318,0.974 0.202,-0.248 0.396,-0.438 0.591,-0.578 0.118,-0.201 0.288,-0.37 0.498,-0.484 l 0.081,-0.043 c 0.198,-0.106 0.42,-0.163 0.643,-0.163 0.732,0 1.325,0.575 1.348,1.311 0.035,1.194 -0.477,2.252 -0.93,3.186 -0.204,0.419 -0.396,0.818 -0.528,1.196 -0.133,0.389 -0.22,0.811 -0.253,1.252 0,0.037 -0.006,0.175 -0.006,0.175 -0.058,1.22 0.275,2.607 0.959,4.01 0.356,0.724 0.772,1.414 1.217,2.123 0.457,-0.789 1.015,-1.295 1.67,-1.513 0.131,-0.045 0.266,-0.067 0.404,-0.067 0.394,0 0.763,0.181 1.008,0.495 0.247,0.314 0.338,0.731 0.243,1.116 -0.838,3.398 -0.384,5.607 1.727,8.442 0.353,0.477 0.732,0.954 1.112,1.426 0.044,-0.429 0.106,-0.837 0.187,-1.208 0.137,-0.62 0.682,-1.051 1.328,-1.051 0.645,0 1.191,0.431 1.326,1.051 l 0.025,0.118 c 0.591,2.68 1.199,5.452 2.773,7.475 1.059,1.365 2.558,2.389 4.145,3.472 0.12,0.081 0.237,0.163 0.358,0.245 l 0.004,-18.85 c -0.047,-0.054 -0.091,-0.11 -0.132,-0.168 -0.224,-0.312 -1.268,-1.005 -1.725,-1.054 -0.823,0.453 -1.981,1.799 -2.979,3.471 -0.22,0.367 -0.609,0.586 -1.039,0.586 -0.408,0 -0.785,-0.198 -1.012,-0.53 -0.222,-0.323 -0.269,-0.739 -0.125,-1.106 0.172,-0.449 0.36,-0.889 0.549,-1.326 0.282,-0.655 0.547,-1.276 0.761,-1.923 0.31,-0.938 0.699,-1.889 1.393,-2.666 -0.263,-0.441 -1.2,-1.993 -1.2,-1.993 -0.111,-0.183 -0.301,-0.341 -0.542,-0.546 -0.098,-0.08 -0.197,-0.165 -0.296,-0.253 -0.32,-0.284 -0.447,-0.306 -0.479,-0.306 -0.176,0 -0.62,0.224 -0.942,0.387 -0.216,0.107 -0.402,0.223 -0.578,0.329 -0.538,0.326 -1.147,0.695 -2.029,0.695 -0.248,0 -0.495,-0.028 -0.761,-0.086 -0.465,-0.103 -0.824,-0.472 -0.91,-0.942 -0.076,-0.407 0.062,-0.814 0.354,-1.091 0.002,-0.01 0.002,-0.02 0.002,-0.028 0.018,-0.245 0.043,-0.614 0.247,-0.996 0.493,-0.926 1.095,-1.499 1.851,-2.076 0.684,-0.522 2.055,-1.399 3.533,-1.399 0.029,0 0.059,0 0.086,0.002 -0.029,-0.282 -0.067,-0.563 -0.117,-0.838 -0.169,-0.912 -0.566,-1.865 -0.948,-2.785 -0.088,-0.214 -0.176,-0.424 -0.261,-0.634 -0.234,-0.267 -0.42,-0.565 -0.553,-0.893 -0.099,-0.055 -0.231,-0.094 -0.436,-0.094 -0.867,0 -2.148,0.681 -3.178,1.228 -0.457,0.243 -0.889,0.473 -1.287,0.648 -0.139,0.06 -0.314,0.096 -0.465,0.096 -0.418,0 -0.804,-0.224 -1.01,-0.587 -0.196,-0.345 -0.187,-0.818 0.016,-1.159 0.721,-1.201 4.033,-4.093 6.595,-4.334 0.092,-0.365 0.169,-0.704 0.199,-0.993 0.168,-1.713 -0.291,-2.958 -1.366,-3.706 -0.649,-0.451 -1.744,-0.918 -2.447,-0.918 -0.144,0 -0.231,0.02 -0.278,0.035 -0.117,0.041 -0.263,0.067 -0.387,0.067 -0.5,0 -0.949,-0.322 -1.116,-0.799 -0.163,-0.47 -0.012,-0.994 0.379,-1.304 0.757,-0.599 1.808,-0.916 3.037,-0.916 0.749,0 1.538,0.121 2.279,0.347 0.228,-0.658 0.499,-1.246 0.725,-1.687 0.177,-0.35 0.376,-0.674 0.568,-0.987 0.871,-1.415 0.926,-1.633 -0.033,-2.278 -0.99,-0.665 -1.956,-1.291 -2.901,-1.646 -0.356,-0.132 -0.632,-0.408 -0.762,-0.755 -0.127,-0.346 -0.098,-0.73 0.083,-1.054 l 0.121,0.069 c 0.008,-0.026 0.016,-0.051 0.023,-0.075 l -0.103,-0.071 c 0.115,-0.21 0.288,-0.378 0.496,-0.486 0.392,-0.314 0.896,-0.314 1.091,-0.314 0.787,0 2.076,0.269 2.79,0.432 0.027,0.006 0.054,0.011 0.08,0.019 0.52,0.155 1.054,0.332 1.561,0.571 0.472,-0.871 1.052,-1.654 1.529,-2.189 0.244,-0.271 0.546,-0.524 0.863,-0.789 0.285,-0.239 0.789,-0.661 0.95,-0.914 -0.017,-0.016 -0.037,-0.034 -0.063,-0.053 -1.206,-0.977 -3.631,-2.537 -4.379,-2.653 -0.125,0.043 -0.259,0.067 -0.384,0.067 -0.395,0 -0.758,-0.198 -0.972,-0.532 -0.202,-0.319 -0.233,-0.773 -0.072,-1.116 0.331,-0.71 1.034,-1.118 1.931,-1.118 0.774,0 1.6,0.292 2.094,0.466 l 0.189,0.067 0.502,0.165 c 1.131,0.371 2.474,0.808 3.602,1.579 0.236,-0.27 0.496,-0.537 0.801,-0.79 0.333,-0.279 0.681,-0.553 1.029,-0.828 0.667,-0.528 1.299,-1.028 1.861,-1.57 0.092,-0.09 0.19,-0.18 0.29,-0.272 0.263,-0.246 0.879,-0.82 0.879,-1.032 0,0 -0.014,-0.069 -0.139,-0.206 -0.818,-0.893 -2.191,-2.058 -3.229,-2.555 -0.491,-0.231 -0.754,-0.767 -0.642,-1.298 0.113,-0.54 0.574,-0.929 1.12,-0.944 l 0.11,-0.002 c 1.744,0 3.779,1.269 4.611,1.94 0.305,0.245 0.603,0.494 0.873,0.765 0.298,-0.198 0.59,-0.382 0.867,-0.557 0.467,-0.296 0.906,-0.575 1.148,-0.777 0.196,-0.161 0.376,-0.31 0.56,-0.453 -0.131,-0.159 -0.315,-0.369 -0.574,-0.642 l -0.103,-0.108 c -0.974,-1.083 -1.793,-2.428 -2.189,-3.598 -0.123,-0.367 -0.061,-0.777 0.167,-1.096 0.227,-0.318 0.595,-0.508 0.979,-0.508 0.047,0 0.102,0.004 0.149,0.009 l -0.028,0.208 h 0.082 l 0.042,-0.196 c 0.341,0.041 0.636,0.22 0.83,0.477 0.396,0.235 0.775,0.6 1.175,1.006 0.071,0.073 0.131,0.136 0.173,0.171 0.5,0.451 1.049,0.848 1.63,1.268 0.257,0.186 0.512,0.372 0.768,0.563 0.121,0.092 0.241,0.194 0.354,0.304 0.424,-0.234 0.844,-0.436 1.211,-0.613 0.249,-0.119 0.475,-0.227 0.665,-0.329 l 0.175,-0.092 c 1.398,-0.746 1.797,-1.009 1.696,-2.064 -0.043,-0.465 -0.303,-0.918 -0.605,-1.442 -0.334,-0.579 -0.711,-1.236 -0.834,-2.035 -0.055,-0.353 0.047,-0.712 0.28,-0.985 0.231,-0.27 0.567,-0.426 0.922,-0.426 0.422,0 0.807,0.218 1.028,0.581 0.216,0.353 0.554,0.785 0.908,1.242 0.407,0.524 0.848,1.091 1.233,1.694 0.533,-0.236 1.087,-0.418 1.606,-0.528 0.982,-0.21 1.98,-0.744 2.18,-1.166 0.025,-0.053 0.055,-0.116 -0.033,-0.292 -0.35,-0.683 -0.838,-1.309 -1.354,-1.97 -0.496,-0.636 -1.009,-1.291 -1.428,-2.042 -0.208,-0.379 -0.205,-0.826 0.013,-1.195 0.216,-0.369 0.616,-0.597 1.046,-0.597 0.404,0 0.781,0.203 1.007,0.546 0.351,0.532 1.077,1.12 1.777,1.689 0.903,0.732 1.89,1.533 2.474,2.512 0.779,-0.428 1.588,-0.856 2.471,-1.191 0.482,-0.185 0.968,-0.214 1.396,-0.242 0.275,-0.017 0.535,-0.033 0.704,-0.088 0.432,-0.137 0.787,-0.375 1.198,-0.649 0.182,-0.122 0.377,-0.254 0.593,-0.383 -0.058,-0.695 -0.467,-2.133 -0.727,-2.833 l -0.03,-0.02 c -0.441,-0.294 -0.633,-0.829 -0.48,-1.332 0.152,-0.508 0.612,-0.847 1.144,-0.847 0.054,0 0.125,0.004 0.178,0.011 1.163,0.175 1.964,1.14 2.608,2.023 0.955,-0.946 2.112,-1.787 3.311,-2.399 0.85,-0.434 1.725,-0.711 2.572,-0.979 0.607,-0.193 1.179,-0.375 1.723,-0.605 0.018,-0.007 0.035,-0.015 0.051,-0.023 -0.136,-0.337 -0.634,-0.954 -0.891,-1.267 -0.251,-0.31 -0.488,-0.605 -0.673,-0.891 -0.256,-0.4 -0.275,-0.905 -0.048,-1.319 0.233,-0.425 0.678,-0.69 1.163,-0.69 0.221,0 0.441,0.057 0.635,0.166 0.206,0.115 0.418,0.228 0.634,0.344 0.942,0.5 1.978,1.053 2.776,1.891 0.061,-0.037 0.124,-0.074 0.186,-0.112 0.836,-0.494 1.627,-0.796 2.394,-1.088 0.369,-0.142 0.748,-0.287 1.143,-0.457 0.229,-0.101 0.445,-0.212 0.657,-0.324 0.368,-0.191 0.747,-0.389 1.198,-0.546 0.192,-0.066 0.319,-0.123 0.402,-0.169 -0.041,-0.08 -0.11,-0.198 -0.224,-0.358 -0.322,-0.45 -0.54,-0.936 -0.732,-1.366 -0.145,-0.326 -0.284,-0.633 -0.449,-0.891 -0.037,-0.058 -0.073,-0.11 -0.106,-0.153 -0.175,-0.241 -0.467,-0.641 -0.422,-1.314 0.043,-0.62 0.566,-1.106 1.185,-1.106 0.338,0 0.657,0.146 0.885,0.405 0.254,0.295 0.705,0.685 1.185,1.099 0.576,0.496 1.201,1.038 1.739,1.619 0.943,-0.724 1.905,-1.44 2.842,-2.137 0.481,-0.357 0.957,-0.71 1.428,-1.063 1.048,-0.785 1.9,-1.458 2.648,-2.088 C 0.5,27.632 0.482,27.616 0.465,27.6 c -1.077,-0.937 -1.962,-2.266 -2.491,-3.737 -0.136,-0.379 -0.077,-0.804 0.157,-1.136 0.239,-0.341 0.632,-0.545 1.047,-0.545 0.377,0 0.726,0.166 0.962,0.457 0.702,0.863 1.763,1.648 2.501,2.164 0.098,0.068 0.202,0.133 0.312,0.194 0.949,-1.003 1.997,-1.895 3.018,-2.763 0.457,-0.388 0.914,-0.775 1.357,-1.171 L 7.597,20.828 C 9.772,18.933 10.286,18.097 10.393,17.755 10.379,17.751 10.051,17.642 9.902,17.593 8.831,17.241 7.614,16.841 6.726,15.705 6.451,15.358 6.398,14.874 6.594,14.473 6.79,14.071 7.187,13.82 7.632,13.82 c 0.218,0 0.463,0.076 0.645,0.198 0.226,0.151 0.538,0.222 0.988,0.222 0.356,0 0.749,-0.045 1.165,-0.091 0.449,-0.05 0.914,-0.104 1.381,-0.104 0.261,0 0.506,0.018 0.738,0.054 0.015,-0.042 0.029,-0.081 0.045,-0.118 0.373,-0.95 0.802,-1.784 1.256,-2.668 l 0.152,-0.297 C 14.293,10.447 14.565,9.847 14.855,9.211 15.254,8.34 15.662,7.448 16.129,6.602 15.491,6.367 14.863,6.161 14.254,5.988 11.937,5.334 9.486,4.587 7.226,3.308 6.782,3.057 6.349,2.8 5.919,2.543 5.386,2.227 4.844,1.903 4.287,1.603 3.951,2.794 3.323,4.124 2.523,5.338 L 2.415,5.574 c 0.665,0.822 1.25,1.811 1.781,2.709 0.399,0.671 0.85,1.432 1.079,1.644 0.362,0.332 0.482,0.84 0.303,1.299 -0.177,0.455 -0.622,0.761 -1.108,0.761 -0.208,0 -0.453,-0.07 -0.63,-0.182 C 2.849,11.179 1.913,10.402 0.895,9.364 0.538,9.001 0.151,8.648 -0.243,8.325 -0.347,8.519 -0.453,8.766 -0.51,8.899 -0.551,8.992 -0.587,9.076 -0.622,9.15 c -0.657,1.434 -1.575,2.647 -2.396,3.602 0.426,1.215 0.652,2.469 0.872,3.685 0.172,0.952 0.334,1.85 0.583,2.717 0.095,0.332 0.023,0.728 -0.185,1.005 -0.216,0.284 -0.557,0.455 -0.918,0.455 -0.346,0 -0.712,-0.182 -0.922,-0.459 -0.694,-0.922 -1.138,-2.009 -1.565,-3.059 -0.222,-0.541 -0.43,-1.05 -0.661,-1.514 -0.025,-0.043 -0.044,-0.089 -0.062,-0.134 -0.177,0.051 -0.36,0.079 -0.547,0.079 -0.075,0 -0.149,-0.004 -0.222,-0.014 -0.516,0.369 -0.987,0.897 -1.549,1.72 -0.478,0.701 -2.035,2.814 -4.113,3.948 0.584,1.852 0.757,4.2 0.446,5.172 -0.158,0.48 -0.603,0.802 -1.111,0.802 -0.549,0 -1.026,-0.39 -1.132,-0.928 -0.208,-1.048 -0.755,-2.319 -1.428,-3.386 -0.533,0.404 -1.301,0.939 -2.409,1.691 -0.287,0.194 -0.504,0.341 -0.599,0.41 l -0.549,0.406 c -1.207,0.897 -2.543,1.889 -4.056,2.446 0.321,1.195 0.601,2.49 0.652,3.771 0.012,0.318 -0.108,0.63 -0.327,0.858 -0.222,0.229 -0.533,0.361 -0.852,0.361 -0.524,0 -0.977,-0.336 -1.131,-0.83 -0.311,-1.001 -0.896,-1.999 -1.504,-2.939 -0.479,0.198 -1.324,0.867 -1.63,1.11 -0.187,0.147 -0.343,0.273 -0.465,0.357 -0.224,0.159 -0.477,0.365 -0.751,0.585 -0.78,0.626 -1.692,1.36 -2.683,1.787 0.212,0.94 0.334,2.05 0.361,3.316 0.008,0.318 -0.11,0.618 -0.332,0.844 -0.208,0.212 -0.543,0.353 -0.839,0.353 -0.386,0 -0.75,-0.191 -0.971,-0.509 -0.416,-0.602 -0.749,-1.218 -1.071,-1.816 -0.199,-0.367 -0.397,-0.734 -0.617,-1.097 -0.043,-0.072 -0.074,-0.108 -0.078,-0.117 -0.381,0.017 -1.26,0.775 -1.638,1.102 -0.236,0.204 -0.45,0.384 -0.625,0.518 l -0.187,0.137 c -0.663,0.497 -1.672,1.252 -2.749,1.705 0.008,0.127 0.012,0.253 0.018,0.375 0.005,0.149 0.013,0.298 0.023,0.443 0.021,0.33 -0.01,0.752 -0.041,1.197 -0.029,0.394 -0.082,1.128 -0.043,1.301 0.161,0.376 0.122,0.804 -0.103,1.142 -0.223,0.339 -0.595,0.539 -1,0.539 -0.392,0 -0.763,-0.196 -0.989,-0.526 -0.564,-0.82 -0.757,-1.773 -0.929,-2.613 -0.092,-0.459 -0.183,-0.904 -0.324,-1.293 -0.246,0.047 -0.433,0.11 -0.591,0.226 -0.293,0.217 -0.536,0.518 -0.816,0.865 -0.131,0.163 -0.265,0.325 -0.406,0.489 -0.777,0.886 -1.723,1.445 -2.772,1.644 0.1,1.079 0.004,2.107 -0.083,2.727 -0.08,0.57 -0.56,0.986 -1.141,0.986 -0.562,0 -1.04,-0.398 -1.138,-0.947 -0.233,-1.321 -0.69,-2.829 -0.985,-3.286 -0.018,-0.002 -0.037,-0.002 -0.057,-0.002 -1.026,-0.002 -2.733,2.038 -3.555,3.019 -0.275,0.328 -0.516,0.618 -0.718,0.836 -0.616,0.663 -2.076,2.144 -3.767,3.19 0.116,0.23 0.231,0.463 0.314,0.618 0.259,0.226 0.417,0.555 0.417,0.926 0.002,0.624 -0.453,1.136 -1.078,1.216 -0.071,0.01 -0.143,0.014 -0.216,0.014 -0.873,0 -1.701,-0.669 -2.431,-1.257 -0.141,-0.114 -0.335,-0.271 -0.453,-0.362 -0.018,0 -0.035,-0.002 -0.051,-0.002 -0.628,0.206 -1.876,1.174 -3.714,2.875 -0.149,0.137 -0.272,0.253 -0.367,0.337 -0.308,0.277 -0.623,0.893 -0.934,1.554 0.687,0.308 2.472,1.246 2.612,2.762 M 91.433,78.779 c -1.951,5.287 -4.554,10.404 -7.526,14.802 -0.719,1.065 -1.344,2.288 -1.948,3.475 l -0.309,0.602 c -0.011,0.035 -0.023,0.071 -0.037,0.102 -0.455,1.175 -1.126,2.16 -1.69,2.927 -0.276,0.412 -0.536,0.771 -0.799,1.097 -0.987,1.23 -1.872,2.342 -2.68,3.472 -0.345,0.748 -0.742,1.47 -1.104,2.1 -0.05,0.415 -0.216,0.804 -0.486,1.13 -0.117,0.196 -0.295,0.408 -0.572,0.712 -0.243,0.444 -0.435,0.82 -0.602,1.179 -0.356,0.767 -1.052,1.226 -1.867,1.226 -0.411,0 -0.825,-0.121 -1.184,-0.349 -0.226,-0.078 -0.43,-0.212 -0.599,-0.392 -0.165,-0.177 -0.325,-0.356 -0.502,-0.557 -0.212,-0.244 -0.386,-0.458 -0.53,-0.65 -0.18,-0.188 -0.362,-0.396 -0.527,-0.602 -1.813,-1.949 -3.216,-4.53 -4.465,-6.83 -0.527,-0.967 -1.023,-1.881 -1.515,-2.687 C 60.26,95.884 58.777,91.9 57.331,88.013 56.707,86.336 56.062,84.602 55.365,82.932 l -0.056,-0.14 c -1.313,-3.146 -2.445,-5.861 -3.124,-9.295 -0.524,-2.658 0.219,-4.677 1.99,-5.403 1.806,-0.74 4.053,-1.005 6.054,-1.24 0.569,-0.066 1.12,-0.131 1.638,-0.206 1.018,-0.145 2.099,-0.212 3.404,-0.212 0.259,0 0.514,0.002 0.759,0.006 -0.312,-2.069 -0.931,-4.375 -1.852,-6.874 -0.442,-1.199 -0.775,-2.422 -1.099,-3.603 -0.453,-1.657 -0.922,-3.372 -1.673,-4.902 -0.416,-0.846 -0.801,-1.711 -1.177,-2.555 -0.689,-1.546 -1.401,-3.147 -2.29,-4.577 -0.715,-1.155 -1.673,-2.266 -2.621,-3.367 -0.69,-0.802 -1.405,-1.632 -2.048,-2.509 -0.814,-1.108 -1.607,-2.254 -2.398,-3.396 -2.348,-3.388 -4.775,-6.892 -7.951,-9.57 -4.715,-3.971 -9.741,-7.706 -14.177,-11.003 -2.666,-1.981 -5.526,-4.013 -8.538,-5.628 -0.548,1.842 -1.501,3.643 -2.3,5.152 l -0.138,0.265 c -0.778,1.465 -1.594,2.554 -2.438,3.25 0.062,1.602 -1.043,3.126 -1.746,4.095 -1.311,1.807 -2.964,3.363 -4.563,4.867 -0.528,0.497 -1.051,0.99 -1.558,1.488 -0.273,0.269 -0.568,0.647 -0.883,1.048 -0.937,1.204 -2.097,2.689 -3.924,2.799 -0.898,0.755 -1.828,1.479 -2.73,2.18 l -0.785,0.612 c -0.563,0.441 -1.093,0.934 -1.654,1.455 -1.393,1.297 -2.831,2.637 -4.889,3.24 -0.094,0.027 -0.193,0.049 -0.29,0.063 -1.198,0.621 -2.425,1.2 -3.619,1.761 -0.423,0.201 -0.843,0.398 -1.262,0.597 -0.319,0.153 -0.659,0.363 -1.025,0.585 -0.69,0.423 -1.462,0.894 -2.315,1.11 -0.092,0.082 -0.42,0.371 -0.42,0.371 -1.004,0.888 -2.332,1.328 -3.613,1.753 -0.811,0.269 -1.574,0.524 -2.172,0.864 -0.579,0.327 -1.095,0.824 -1.641,1.348 -0.398,0.382 -0.807,0.775 -1.269,1.128 -0.234,0.637 -0.658,1.167 -1.218,1.52 -0.579,0.363 -1.101,0.667 -1.605,0.934 -0.051,0.655 -0.19,1.297 -0.328,1.923 -0.101,0.465 -0.198,0.906 -0.249,1.318 l -0.021,0.181 c 0.035,0.374 0.053,0.708 0.053,1.041 0.003,1.68 0.001,3.361 0.001,5.041 l -0.001,46.75 c 0,4.848 0.062,9.802 0.122,14.595 0.033,2.646 0.066,5.297 0.089,7.949 0.253,0.01 0.512,0.065 0.767,0.165 1.409,0.545 2.459,1.434 3.477,2.291 0.449,0.381 0.875,0.742 1.333,1.074 0.278,0.202 0.562,0.406 0.85,0.614 1.574,1.126 3.2,2.291 4.487,3.723 0.346,0.387 0.54,0.87 0.566,1.382 0.434,0.437 0.853,0.886 1.261,1.322 0.962,1.026 1.868,1.995 2.91,2.797 0.961,0.74 1.596,1.454 2.195,2.467 0.068,0.115 0.127,0.231 0.177,0.343 1.484,1.148 2.905,3.164 3.541,4.238 0.173,0.286 0.4,0.616 0.642,0.965 0.447,0.646 0.945,1.365 1.304,2.134 0.875,0.507 1.562,1.347 2.129,2.041 l 0.149,0.179 c 1.53,1.859 2.768,4.351 3.567,6.064 0.347,0.747 0.792,1.881 0.996,2.819 0.023,0.112 0.041,0.224 0.057,0.329 0.269,0.354 0.534,0.729 0.804,1.137 h 20.01 c 0.775,-1.403 2.366,-2.351 3.576,-3.073 0.265,-0.159 0.515,-0.306 0.727,-0.443 1.883,-1.219 4.019,-1.919 5.859,-1.919 0.412,0 0.817,0.035 1.201,0.102 7.856,1.387 12.633,5.309 13.452,11.048 0.462,3.245 0.862,6.048 -0.949,9.703 -1.388,2.802 -4.147,4.715 -6.662,6.215 -1.552,0.927 -3.41,1.397 -5.517,1.397 -1.273,0 -2.606,-0.172 -3.963,-0.512 -3.281,-0.822 -5.264,-2.493 -7.41,-4.604 H 9.174 c -0.037,0.3 -0.092,0.582 -0.165,0.845 0.287,0.44 0.468,0.93 0.622,1.352 0.069,0.187 0.132,0.363 0.2,0.51 0.579,1.207 1.285,3.015 0.746,4.765 -0.061,0.203 -0.134,0.393 -0.218,0.572 0.065,0.082 0.127,0.17 0.183,0.264 0.405,0.693 0.473,1.328 0.484,1.913 0.006,0.371 0.078,0.766 0.155,1.181 0.071,0.379 0.143,0.772 0.176,1.187 0.08,1.021 0.078,2.154 -0.421,3.174 0.559,1.176 0.429,2.422 0.314,3.53 -0.035,0.328 -0.069,0.654 -0.081,0.968 -0.043,1.139 -0.512,2.877 -1.293,3.853 -0.162,0.204 -0.333,0.378 -0.514,0.525 -0.147,0.515 -0.123,1.24 -0.099,1.945 0.015,0.463 0.031,0.941 0,1.39 -0.134,1.85 -0.611,3.069 -1.7,4.352 -0.239,0.281 -0.505,0.508 -0.794,0.681 -0.131,1.458 -0.413,2.615 -0.924,3.859 -0.179,0.434 -0.283,0.934 -0.391,1.463 -0.237,1.17 -0.535,2.627 -1.879,3.63 -0.363,0.273 -0.726,0.483 -1.093,0.634 -0.19,1.375 -1.189,2.729 -2.021,3.857 -0.304,0.414 -0.592,0.804 -0.773,1.108 l -0.165,0.279 c -0.614,1.042 -1.351,2.292 -2.693,2.78 -0.266,1.472 -1.366,2.837 -2.211,3.887 -0.238,0.294 -0.458,0.565 -0.628,0.806 -0.734,1.028 -2.223,3.118 -4.306,3.3 -0.057,0.202 -0.119,0.369 -0.165,0.481 -0.677,1.606 -1.739,2.566 -2.69,3.294 -1.015,0.776 -2.088,1.553 -3.224,1.983 -0.025,0.069 -0.054,0.137 -0.087,0.204 -0.383,0.763 -0.589,2.5 -0.727,3.649 l -0.064,0.541 c -0.336,2.685 -1.593,5.59 -2.902,8.331 -0.182,0.384 -0.367,0.806 -0.561,1.246 -0.86,1.967 -1.836,4.2 -3.567,5.419 -1.199,0.845 -2.44,1.612 -3.641,2.356 -1.021,0.633 -2.078,1.287 -3.084,1.974 -2.586,1.769 -4.945,3.16 -8.033,4.208 -1.718,0.583 -3.719,0.855 -6.301,0.855 -0.961,0 -1.879,-0.037 -2.573,-0.069 -3.858,-0.182 -9.477,-0.945 -14.311,-3.554 -2.023,-1.091 -3.959,-2.313 -6.096,-3.844 -1.763,-1.265 -3.157,-3.171 -4.503,-5.012 -0.604,-0.828 -1.175,-1.611 -1.75,-2.29 -4.056,-4.801 -5.132,-11.96 -4.822,-16.633 0.369,-5.523 0.978,-11.324 3.961,-16.216 1.38,-2.263 3.267,-5.163 5.613,-7.509 0.175,-0.175 0.375,-0.389 0.595,-0.624 0.706,-0.758 1.632,-1.75 2.635,-2.431 v -18.452 c 0,-0.897 0.564,-1.616 1.406,-1.834 v -11.364 c -0.64,-0.129 -1.159,-0.571 -1.385,-1.199 -0.1,-0.235 -0.149,-0.49 -0.149,-0.757 v -1.234 h -51.282 c -1.962,3.652 -7.332,4.968 -11.531,4.968 -0.474,0 -0.937,-0.018 -1.375,-0.051 -5.864,-0.453 -11.044,-6.206 -12.201,-11.293 -1.252,-5.507 1.299,-10.844 6.998,-14.644 2.07,-1.381 4.434,-2.079 7.024,-2.079 1.201,0 2.457,0.151 3.731,0.453 1.705,0.402 2.861,0.993 4.396,1.942 0.613,0.381 1.137,0.92 1.643,1.442 0.369,0.379 0.75,0.769 1.077,0.993 0.043,0.02 0.086,0.041 0.128,0.065 h 51.265 c -0.083,-0.434 -0.026,-0.893 0.179,-1.297 0.195,-0.379 0.498,-0.667 0.864,-0.838 0.212,-1.628 0.184,-3.443 0.155,-5.205 -0.008,-0.573 -0.018,-1.13 -0.018,-1.661 0,-1.908 0.022,-3.517 0.065,-5.06 -0.063,-1.909 -0.014,-3.85 0.034,-5.727 0.029,-1.203 0.061,-2.445 0.061,-3.64 l 0.002,-5.165 c -0.072,-0.039 -0.138,-0.087 -0.204,-0.135 -0.722,-0.55 -1.453,-1.08 -2.178,-1.603 -1.851,-1.338 -3.763,-2.722 -5.468,-4.426 -0.383,-0.383 -0.73,-0.864 -1.032,-1.437 -2.429,-0.71 -4.513,-3.982 -5.929,-6.211 -0.316,-0.494 -0.589,-0.924 -0.791,-1.203 -0.598,-0.827 -1.063,-1.732 -1.381,-2.695 -0.667,-0.846 -1.163,-1.819 -1.644,-2.761 -0.294,-0.573 -0.571,-1.116 -0.873,-1.604 -0.991,-1.601 -2.025,-3.332 -2.799,-5.306 -0.342,-0.865 -0.472,-1.869 -0.383,-2.987 -0.412,-0.913 -0.564,-1.974 -0.7,-2.924 -0.052,-0.364 -0.101,-0.708 -0.163,-1.004 -0.136,-0.644 -0.297,-1.27 -0.453,-1.878 -0.426,-1.658 -0.866,-3.37 -0.739,-5.356 -0.09,-0.257 -0.117,-0.534 -0.076,-0.808 0.324,-2.18 0.77,-5.166 0.781,-7.759 l 0.002,-0.197 c 0.006,-1.797 0.016,-4.259 0.854,-5.948 0.101,-0.208 0.231,-0.418 0.384,-0.63 0.007,-0.065 0.017,-0.127 0.033,-0.192 0.287,-1.242 0.699,-2.453 1.096,-3.624 0.295,-0.859 0.599,-1.75 0.836,-2.619 0.199,-0.72 0.373,-1.479 0.54,-2.211 0.357,-1.566 0.726,-3.184 1.393,-4.724 0.475,-1.097 1.303,-1.88 2.405,-2.286 0.323,-0.528 0.665,-0.981 0.997,-1.418 0.567,-0.75 1.058,-1.397 1.37,-2.302 0.873,-2.523 2.628,-4.589 5.079,-5.98 0.049,-0.027 0.098,-0.056 0.145,-0.084 0.471,-0.637 0.83,-1.338 1.211,-2.078 0.267,-0.519 0.541,-1.057 0.869,-1.598 1.132,-1.873 2.619,-3.006 4.195,-4.209 0.134,-0.104 0.27,-0.206 0.406,-0.312 0.019,-1.438 -0.136,-2.933 -0.287,-4.385 -0.08,-0.765 -0.159,-1.528 -0.216,-2.285 -0.065,-0.887 -0.102,-1.78 -0.137,-2.643 -0.054,-1.248 -0.108,-2.539 -0.247,-3.781 -0.518,-4.581 -1.26,-9.177 -2.2,-13.66 -1.086,-5.18 -2.233,-10.369 -3.108,-14.31 -0.46,-2.08 -0.784,-4.024 -0.96,-5.776 -0.076,-0.75 -0.128,-1.534 -0.179,-2.29 -0.057,-0.84 -0.114,-1.699 -0.204,-2.533 -1.097,0.24 -2.213,0.434 -3.347,0.624 -1.868,0.312 -3.797,0.636 -5.58,1.216 -4.517,1.472 -8.495,2.692 -12.16,3.734 -1.53,0.436 -2.866,1.228 -4.304,2.086 -0.422,0.249 -0.848,0.502 -1.283,0.749 -2.267,1.283 -4.715,2.026 -7.027,2.68 -5.349,1.511 -10.286,4.971 -14.494,8.098 -4.435,3.299 -9.463,7.036 -14.174,11.003 -3.176,2.676 -5.604,6.18 -7.954,9.572 -0.773,1.118 -1.573,2.276 -2.397,3.396 -0.649,0.885 -1.37,1.721 -2.066,2.529 -0.926,1.075 -1.885,2.188 -2.604,3.345 -0.887,1.43 -1.599,3.031 -2.291,4.583 -0.373,0.838 -0.76,1.703 -1.174,2.549 -0.751,1.53 -1.219,3.245 -1.678,4.918 -0.323,1.177 -0.654,2.394 -1.093,3.587 -0.92,2.495 -1.54,4.803 -1.853,6.874 0.245,-0.004 0.501,-0.006 0.758,-0.006 1.305,0 2.388,0.067 3.405,0.212 0.521,0.075 1.077,0.14 1.659,0.208 1.981,0.233 4.227,0.498 6.033,1.238 1.771,0.726 2.514,2.745 1.989,5.403 -0.677,3.432 -1.812,6.151 -3.122,9.297 l -0.059,0.14 c -0.7,1.679 -1.347,3.423 -1.975,5.113 -1.435,3.853 -2.917,7.837 -5.149,11.489 -0.498,0.816 -0.996,1.732 -1.526,2.707 -1.239,2.28 -2.643,4.863 -4.441,6.796 -0.177,0.22 -0.356,0.424 -0.522,0.594 -0.159,0.212 -0.336,0.428 -0.565,0.689 -0.16,0.184 -0.322,0.365 -0.487,0.54 -0.165,0.18 -0.371,0.314 -0.596,0.392 -0.361,0.228 -0.773,0.349 -1.187,0.349 -0.812,0 -1.511,-0.459 -1.866,-1.226 -0.165,-0.359 -0.359,-0.738 -0.603,-1.179 -0.274,-0.304 -0.451,-0.514 -0.57,-0.71 -0.269,-0.326 -0.436,-0.714 -0.486,-1.132 -0.362,-0.63 -0.756,-1.344 -1.079,-2.058 -0.831,-1.164 -1.717,-2.282 -2.705,-3.514 -0.262,-0.326 -0.521,-0.683 -0.762,-1.046 -0.599,-0.812 -1.272,-1.801 -1.725,-2.97 -0.014,-0.036 -0.025,-0.069 -0.037,-0.108 l -0.312,-0.606 c -0.603,-1.183 -1.226,-2.406 -1.947,-3.473 -2.973,-4.4 -5.577,-9.517 -7.527,-14.802 -0.95,-2.574 -1.091,-5.894 -1.091,-7.642 0,-3.021 2.87,-3.578 4.408,-3.879 l 0.401,-0.078 c 2.409,-0.496 4.952,-0.72 8.246,-0.72 0.376,0 0.753,0.004 1.132,0.008 0.107,-1.974 0.377,-3.836 0.659,-5.794 0.074,-0.514 0.149,-1.034 0.221,-1.562 0.116,-0.835 0.199,-1.73 0.279,-2.599 0.177,-1.921 0.361,-3.906 0.916,-5.784 0.483,-1.638 0.847,-3.362 1.203,-5.044 0.358,-1.701 0.729,-3.459 1.236,-5.181 0.912,-3.1 2.021,-6.217 3.096,-9.231 l 0.576,-1.627 c 1.357,-3.825 2.647,-6.974 4.55,-9.896 0.694,-1.066 1.429,-2.126 2.137,-3.152 1.6,-2.313 3.257,-4.707 4.477,-7.188 3.446,-7.022 9.505,-11.995 14.852,-16.385 1.494,-1.228 2.993,-2.515 4.443,-3.76 1.291,-1.111 2.627,-2.261 3.967,-3.369 2.133,-1.77 4.254,-3.255 6.51,-4.832 0.851,-0.595 1.707,-1.195 2.568,-1.813 1.725,-1.24 3.617,-2.154 5.466,-3.048 1.212,-0.587 2.468,-1.194 3.611,-1.87 0.163,-0.096 0.328,-0.218 0.513,-0.35 0.455,-0.325 1.006,-0.72 1.663,-0.93 0.256,-0.218 0.604,-0.426 1.108,-0.72 0.193,-0.112 0.515,-0.3 0.591,-0.357 1.619,-1.35 3.438,-2.509 5.215,-3.643 1.079,-0.689 2.193,-1.399 3.216,-2.128 1.497,-1.066 3.137,-1.878 4.723,-2.663 l 0.85,-0.421 c 0.731,-0.368 1.495,-0.848 2.247,-1.321 1.157,-0.732 2.356,-1.485 3.658,-1.981 0.984,-0.373 2.014,-0.725 2.952,-1.046 0.927,-0.318 1.889,-0.648 2.813,-0.999 0.741,-0.28 1.493,-0.642 2.236,-0.998 0.805,-0.385 1.637,-0.783 2.516,-1.111 1.906,-0.71 3.806,-1.444 5.711,-2.18 l 0.07,-0.027 c 1.886,-0.726 3.832,-1.477 5.759,-2.196 0.943,-0.35 1.926,-0.677 2.874,-0.992 2.499,-0.828 5.083,-1.687 7.135,-3.055 2.415,-1.611 5.674,-4.977 6.725,-7.606 0.344,-0.859 1.2,-1.437 2.133,-1.437 0.074,0 0.152,0.004 0.226,0.012 0.078,-0.008 0.157,-0.012 0.235,-0.012 0.943,0 1.777,0.564 2.125,1.435 1.052,2.631 4.311,5.997 6.728,7.608 2.051,1.368 4.632,2.225 7.132,3.055 0.951,0.315 1.933,0.642 2.877,0.992 1.986,0.74 4.028,1.529 5.831,2.225 l 0.057,0.022 c 1.881,0.726 3.763,1.451 5.652,2.156 0.887,0.332 1.72,0.73 2.527,1.117 0.727,0.348 1.481,0.71 2.224,0.992 0.947,0.359 1.953,0.704 2.878,1.02 0.947,0.326 1.925,0.662 2.887,1.025 1.305,0.496 2.503,1.253 3.667,1.985 0.741,0.467 1.506,0.949 2.233,1.315 l 0.853,0.423 c 1.589,0.785 3.229,1.597 4.724,2.663 1.032,0.733 2.146,1.445 3.227,2.134 1.762,1.124 3.583,2.286 5.197,3.631 0.084,0.065 0.413,0.255 0.609,0.369 0.465,0.271 0.828,0.481 1.097,0.712 0.659,0.212 1.21,0.609 1.674,0.94 0.173,0.124 0.338,0.244 0.501,0.34 1.158,0.684 2.411,1.291 3.625,1.877 1.833,0.887 3.728,1.803 5.454,3.043 0.86,0.618 1.715,1.216 2.575,1.817 2.246,1.573 4.369,3.057 6.504,4.828 1.298,1.077 2.597,2.191 3.853,3.271 l 0.184,0.159 c 1.426,1.226 2.902,2.491 4.374,3.699 5.343,4.39 11.404,9.361 14.851,16.385 1.218,2.479 2.872,4.871 4.475,7.188 0.675,0.975 1.438,2.08 2.137,3.152 1.905,2.926 3.196,6.073 4.551,9.896 l 0.58,1.635 c 1.072,3.011 2.18,6.127 3.093,9.225 0.506,1.728 0.879,3.488 1.238,5.189 0.351,1.666 0.716,3.39 1.201,5.034 0.554,1.88 0.737,3.867 0.92,5.831 0.078,0.852 0.161,1.732 0.272,2.55 0.069,0.499 0.14,0.987 0.21,1.47 l 0.014,0.098 c 0.283,1.954 0.551,3.814 0.659,5.79 0.377,-0.004 0.756,-0.008 1.132,-0.008 3.295,0 5.837,0.224 8.236,0.718 l 0.404,0.08 c 1.542,0.299 4.414,0.856 4.414,3.879 0,1.75 -0.14,5.07 -1.092,7.642" />
      </g>
    </g>
  </g>
</svg>
